<svg width="115" height="30" viewBox="0 0 115 30" fill="none" xmlns="http://www.w3.org/2000/svg">
<path d="M18.2427 6.0111C17.5779 5.13255 15.7531 4.29776 13.6473 4.29776C10.9347 4.29776 9.6319 5.19818 9.6319 6.33919C9.6319 7.68071 11.6217 8.05254 13.9462 8.27491C17.9884 8.66861 21.7539 9.50341 21.7539 13.1707C21.7539 16.5974 17.9348 18.0665 13.6161 18.0665C9.65866 18.0665 6.61142 17.1005 5.1748 14.2898L8.21759 13.0395C9.07421 14.7309 11.3184 15.4746 13.6696 15.4746C16.0208 15.4746 18.1312 14.8403 18.1312 13.1707C18.1312 11.7125 16.2216 11.1293 13.6473 10.9069C9.6899 10.5424 6.03589 9.70026 6.03589 6.25169C6.03589 3.09112 9.96652 1.79336 13.5358 1.77148C16.5562 1.77148 19.6838 2.45317 21.1472 4.82633L18.2427 6.0111Z" fill="black"/>
<path d="M34.6836 6.39764H37.9227V17.8187H34.7372L34.5721 15.9085C33.7958 17.1808 31.6631 17.7969 30.1418 17.8187C26.0996 17.8406 23.1104 15.8611 23.1104 12.0626C23.1104 8.3297 26.2334 6.37577 30.2265 6.39764C32.0513 6.39764 33.7958 7.07933 34.5721 8.15472L34.6836 6.39764ZM26.4877 12.0626C26.4877 14.1296 28.2724 15.3435 30.5299 15.3435C35.8436 15.3435 35.8436 8.78174 30.5299 8.78174C28.2857 8.80725 26.4877 9.99931 26.4877 12.0626Z" fill="black"/>
<path d="M43.1416 2.13574V17.811H39.791V2.13574H43.1416Z" fill="black"/>
<path d="M48.2555 13.3236C48.4742 14.6651 49.942 15.6311 52.3245 15.6311C53.5692 15.6311 55.2022 15.2666 55.9785 14.6214L58.1379 16.3092C56.6968 17.4976 54.3455 18.0663 52.2665 18.0663C47.564 18.0663 44.7666 15.7624 44.7666 12.2919C44.7666 9.01106 47.5908 6.62695 52.0166 6.62695C56.5852 6.62695 59.4362 8.86525 58.9097 13.3236H48.2555ZM55.6706 11.1072C55.452 9.70004 54.0689 8.99647 52.1282 8.99647C50.3034 8.99647 48.8088 9.70004 48.3091 11.1072H55.6706Z" fill="black"/>
<path d="M69.5733 9.74398C68.6488 9.06879 67.434 8.7213 66.1959 8.77794C64.5898 8.77794 63.7064 9.17529 63.7064 9.85333C63.7064 10.5314 64.5095 10.947 66.2495 11.0417C68.8238 11.173 72.0896 11.6323 72.0896 14.5122C72.0896 16.4224 70.1265 18.0665 66.2227 18.0665C64.0633 18.0665 61.9039 17.7821 59.9141 16.1344L61.5738 14.2242C62.5419 15.0809 64.7548 15.7188 66.2807 15.7407C67.5522 15.7626 68.7435 15.234 68.7435 14.4429C68.7435 13.6519 67.9672 13.3894 66.0308 13.3019C63.4565 13.1488 60.3825 12.4015 60.3825 9.94082C60.3825 7.48016 63.6484 6.56152 66.1424 6.56152C68.2705 6.56152 69.8767 6.88961 71.4561 7.98688L69.5733 9.74398Z" fill="black"/>
<path d="M76.9301 2.13574V17.811H73.584V2.13574H76.9301Z" fill="#0000FF"/>
<path d="M92.7285 12.4234C92.7285 15.5439 90.0515 18.0665 85.6168 18.0665C81.182 18.0665 78.5273 15.5439 78.5273 12.4234C78.5273 9.3029 81.24 6.78027 85.59 6.78027C89.94 6.78027 92.7285 9.32842 92.7285 12.4234ZM81.9047 12.4234C81.9047 14.0711 83.154 15.6095 85.6168 15.6095C88.0795 15.6095 89.3243 14.0711 89.3243 12.4234C89.3243 10.7757 87.8877 9.21906 85.6168 9.21906C83.1807 9.21906 81.9047 10.7975 81.9047 12.4234Z" fill="#0000FF"/>
<path d="M105.547 6.01465L108.036 7.50562L106.515 9.04399C107.489 9.91866 108.007 11.07 107.956 12.252C107.956 13.5898 107.318 15.4782 105.074 16.2911C107.345 17.1915 107.898 18.4783 107.898 19.8709C107.898 22.8565 105.02 24.7011 101.063 24.7011C97.1056 24.7011 94.1431 22.7909 94.1431 19.8709V18.7007H97.4893V19.8709C97.4893 21.2744 99.1267 22.2003 101.059 22.2003C102.99 22.2003 104.516 21.3655 104.516 19.8709C104.516 18.3763 102.732 17.6836 101.059 17.6836C96.7933 17.6836 94.1387 15.6167 94.1387 12.2374C94.1387 8.85808 97.2395 6.74738 101.059 6.74738C102.151 6.69709 103.237 6.91005 104.182 7.35981L105.547 6.01465ZM97.4893 12.252C97.4893 14.1403 99.0955 15.2594 101.059 15.2594C103.022 15.2594 104.601 14.1184 104.601 12.252C104.601 10.3855 102.995 9.1971 101.059 9.1971C99.1222 9.1971 97.4893 10.36 97.4893 12.252Z" fill="#0000FF"/>
</svg>
