<svg width="20" height="20" viewBox="0 0 20 20" fill="none" xmlns="http://www.w3.org/2000/svg">
<path d="M16.4175 9.01391L16.4174 9.01365C16.4119 8.97728 16.3869 8.94707 16.3524 8.93485L16.3521 8.93472L15.2491 8.54254L15.0245 8.46267L14.9452 8.23789C14.8856 8.06907 14.818 7.90508 14.7432 7.7466L14.6421 7.53246L14.7437 7.31857L15.2457 6.2623L15.2458 6.26215C15.2612 6.22961 15.2579 6.19028 15.2359 6.16017C14.8427 5.62546 14.3733 5.15609 13.8405 4.76513L13.8405 4.76507C13.8105 4.74306 13.7719 4.73947 13.7385 4.75534L13.7383 4.75547L12.6826 5.25701L12.4687 5.35862L12.2546 5.25755C12.0965 5.18292 11.9324 5.11551 11.7631 5.05579L11.5382 4.97648L11.4583 4.75182L11.066 3.64871L11.0659 3.64858C11.0538 3.61438 11.0237 3.58925 10.987 3.58357L16.4175 9.01391ZM16.4175 9.01391C16.4746 9.38931 16.5 9.70128 16.5 10.0008C16.5 10.3002 16.4746 10.6121 16.4174 10.9877L16.4173 10.9879C16.4118 11.0243 16.3869 11.0545 16.3524 11.0667L16.352 11.0668L15.249 11.459L15.0245 11.5389L14.9451 11.7636C14.8854 11.9327 14.8178 12.0972 14.7431 12.2554L14.642 12.4696L14.7437 12.6835L15.2456 13.7393L15.2457 13.7394C15.2613 13.7722 15.2576 13.8116 15.2359 13.841L15.2358 13.8412C14.8442 14.3745 14.3749 14.8439 13.8405 15.2365L16.4175 9.01391ZM8.93718 3.08937C8.71919 3.12295 8.53696 3.27337 8.46312 3.48115L8.07077 4.58427C7.88581 4.64951 7.7059 4.72335 7.53227 4.80539L6.47624 4.30385C6.27705 4.20896 6.04187 4.23121 5.86373 4.36202L8.93718 3.08937ZM8.93718 3.08937L9.01301 3.58358M8.93718 3.08937L9.01332 3.58354C8.97658 3.5892 8.94636 3.61451 8.93425 3.64858M8.93425 3.64858L8.93421 3.64871L8.54186 4.75182L8.46196 4.97648L8.23709 5.05579C8.0678 5.11551 7.90369 5.1829 7.74586 5.25747L7.53171 5.35865L7.31777 5.25704L6.26173 4.7555L6.26119 4.75524C6.22839 4.73961 6.18951 4.74313 6.15967 4.76503L6.15954 4.76513C5.62681 5.15606 5.1574 5.62539 4.76429 6.16005L8.93425 3.64858ZM8.93425 3.64858L9.01301 3.58358M9.01301 3.58358C9.73933 3.47214 10.262 3.47215 10.9869 3.58355L9.01301 3.58358Z" stroke="#333333"/>
<circle cx="10.0002" cy="10.0007" r="2.41667" stroke="#333333"/>
</svg>
