<svg width="115" height="30" viewBox="0 0 115 30" fill="none" xmlns="http://www.w3.org/2000/svg">
<path d="M18.2417 6.0111C17.5769 5.13255 15.7522 4.29776 13.6463 4.29776C10.9337 4.29776 9.63092 5.19818 9.63092 6.33919C9.63092 7.68071 11.6208 8.05254 13.9452 8.27491C17.9874 8.66861 21.753 9.50341 21.753 13.1707C21.753 16.5974 17.9339 18.0665 13.6151 18.0665C9.65769 18.0665 6.61045 17.1005 5.17383 14.2898L8.21661 13.0395C9.07323 14.7309 11.3174 15.4746 13.6686 15.4746C16.0199 15.4746 18.1302 14.8403 18.1302 13.1707C18.1302 11.7125 16.2206 11.1293 13.6463 10.9069C9.68892 10.5424 6.03491 9.70026 6.03491 6.25169C6.03491 3.09112 9.96554 1.79336 13.5348 1.77148C16.5553 1.77148 19.6828 2.45317 21.1462 4.82633L18.2417 6.0111Z" fill="white"/>
<path d="M34.6826 6.39764H37.9217V17.8187H34.7362L34.5711 15.9085C33.7948 17.1808 31.6622 17.7969 30.1408 17.8187C26.0986 17.8406 23.1094 15.8611 23.1094 12.0626C23.1094 8.3297 26.2325 6.37577 30.2255 6.39764C32.0503 6.39764 33.7948 7.07933 34.5711 8.15472L34.6826 6.39764ZM26.4868 12.0626C26.4868 14.1296 28.2714 15.3435 30.5289 15.3435C35.8426 15.3435 35.8426 8.78174 30.5289 8.78174C28.2848 8.80725 26.4868 9.99931 26.4868 12.0626Z" fill="white"/>
<path d="M43.1416 2.13599V17.8113H39.791V2.13599H43.1416Z" fill="white"/>
<path d="M48.2546 13.3238C48.4732 14.6654 49.941 15.6314 52.3235 15.6314C53.5683 15.6314 55.2012 15.2668 55.9775 14.6216L58.1369 16.3094C56.6958 17.4978 54.3446 18.0665 52.2655 18.0665C47.563 18.0665 44.7656 15.7626 44.7656 12.2922C44.7656 9.0113 47.5898 6.6272 52.0156 6.6272C56.5843 6.6272 59.4352 8.86549 58.9087 13.3238H48.2546ZM55.6697 11.1074C55.451 9.70029 54.068 8.99672 52.1272 8.99672C50.3024 8.99672 48.8078 9.70029 48.3081 11.1074H55.6697Z" fill="white"/>
<path d="M69.5714 9.74398C68.6469 9.06879 67.432 8.7213 66.194 8.77794C64.5878 8.77794 63.7044 9.17529 63.7044 9.85333C63.7044 10.5314 64.5075 10.947 66.2475 11.0417C68.8218 11.173 72.0877 11.6323 72.0877 14.5122C72.0877 16.4224 70.1246 18.0665 66.2207 18.0665C64.0613 18.0665 61.902 17.7821 59.9121 16.1344L61.5718 14.2242C62.54 15.0809 64.7529 15.7188 66.2787 15.7407C67.5503 15.7626 68.7415 15.234 68.7415 14.4429C68.7415 13.6519 67.9652 13.3894 66.0289 13.3019C63.4546 13.1488 60.3806 12.4015 60.3806 9.94082C60.3806 7.48016 63.6464 6.56152 66.1404 6.56152C68.2686 6.56152 69.8748 6.88961 71.4541 7.98688L69.5714 9.74398Z" fill="white"/>
<path d="M76.9301 2.13599V17.8113H73.584V2.13599H76.9301Z" fill="white"/>
<path d="M92.7265 12.4234C92.7265 15.5439 90.0496 18.0665 85.6148 18.0665C81.18 18.0665 78.5254 15.5439 78.5254 12.4234C78.5254 9.3029 81.238 6.78027 85.588 6.78027C89.9381 6.78027 92.7265 9.32842 92.7265 12.4234ZM81.9028 12.4234C81.9028 14.0711 83.152 15.6095 85.6148 15.6095C88.0776 15.6095 89.3224 14.0711 89.3224 12.4234C89.3224 10.7757 87.8857 9.21906 85.6148 9.21906C83.1788 9.21906 81.9028 10.7975 81.9028 12.4234Z" fill="white"/>
<path d="M105.545 6.01465L108.034 7.50562L106.513 9.04399C107.487 9.91866 108.005 11.07 107.954 12.252C107.954 13.5898 107.316 15.4782 105.072 16.2911C107.343 17.1915 107.896 18.4783 107.896 19.8709C107.896 22.8565 105.018 24.7011 101.061 24.7011C97.1037 24.7011 94.1412 22.7909 94.1412 19.8709V18.7007H97.4874V19.8709C97.4874 21.2744 99.1248 22.2003 101.057 22.2003C102.988 22.2003 104.514 21.3655 104.514 19.8709C104.514 18.3763 102.73 17.6836 101.057 17.6836C96.7914 17.6836 94.1367 15.6167 94.1367 12.2374C94.1367 8.85808 97.2375 6.74738 101.057 6.74738C102.149 6.69709 103.235 6.91005 104.18 7.35981L105.545 6.01465ZM97.4874 12.252C97.4874 14.1403 99.0935 15.2594 101.057 15.2594C103.02 15.2594 104.599 14.1184 104.599 12.252C104.599 10.3855 102.993 9.1971 101.057 9.1971C99.1203 9.1971 97.4874 10.36 97.4874 12.252Z" fill="white"/>
</svg>
